<svg width="34" height="34" viewBox="0 0 34 34" fill="none" xmlns="http://www.w3.org/2000/svg">
<g clip-path="url(#clip0_20_4924)">
<path d="M14.2465 28.4269C14.2769 28.3715 14.2928 28.3094 14.2928 28.2462C14.2928 28.183 14.2769 28.1209 14.2465 28.0655C13.497 27.0325 12.81 25.9556 12.1892 24.8406C12.1587 24.7877 12.1426 24.7278 12.1426 24.6668C12.1426 24.6058 12.1587 24.5459 12.1892 24.493C12.2209 24.4375 12.2679 24.3923 12.3246 24.3627C12.3812 24.3331 12.4452 24.3205 12.5089 24.3262H15.428C15.7532 24.3328 16.0704 24.2251 16.3244 24.0219C16.5784 23.8187 16.7531 23.5329 16.8181 23.2142C16.8181 23.2142 16.8181 23.103 16.8181 23.0613C16.8355 22.8685 16.8125 22.6742 16.7505 22.4908C16.6885 22.3075 16.5888 22.1391 16.458 21.9964C16.3271 21.8538 16.1679 21.7401 15.9905 21.6625C15.8132 21.585 15.6216 21.5453 15.428 21.5461H11.2579C11.1802 21.5478 11.1044 21.5224 11.0435 21.4741C10.9826 21.4259 10.9404 21.358 10.9242 21.282C10.5754 19.7734 10.4028 18.2293 10.4099 16.6809C10.4113 15.3758 10.5276 14.0734 10.7574 12.7887C10.7788 12.7092 10.8258 12.6388 10.8911 12.5886C10.9564 12.5383 11.0364 12.511 11.1188 12.5107H30.9689C31.1942 12.5256 31.4194 12.4813 31.6222 12.3821C31.8251 12.2829 31.9983 12.1323 32.1249 11.9453C32.2514 11.7583 32.3268 11.5415 32.3434 11.3163C32.3601 11.0911 32.3175 10.8655 32.2199 10.662C31.0004 7.50973 28.852 4.80234 26.0594 2.89839C23.2668 0.99444 19.9617 -0.0162461 16.5818 0.000197507C12.2493 0.110535 8.12193 1.86867 5.04067 4.91635C1.95942 7.96403 0.156169 12.0719 -0.00163017 16.4029C-0.06486 20.2314 1.191 23.9651 3.5551 26.9772C5.91921 29.9893 9.24761 32.0964 12.9815 32.9446C13.042 32.9547 13.104 32.9499 13.1622 32.9305C13.2203 32.9111 13.2728 32.8778 13.3151 32.8334C13.3568 32.787 13.3853 32.7303 13.3975 32.6692C13.4097 32.608 13.4053 32.5447 13.3846 32.4859C13.1066 31.6657 13.1066 30.5815 14.2465 28.4269ZM22.142 4.17038C22.1902 4.11339 22.2561 4.0742 22.3292 4.05908C22.4023 4.04397 22.4783 4.05378 22.5451 4.08697C24.9448 5.19188 26.9727 6.96873 28.3834 9.20239C28.4152 9.25472 28.4327 9.31456 28.434 9.37582C28.4353 9.43708 28.4204 9.49759 28.3907 9.55122C28.3611 9.60485 28.3178 9.64969 28.2652 9.68119C28.2127 9.7127 28.1527 9.72975 28.0915 9.73061H24.9221C24.8492 9.72951 24.7782 9.70634 24.7187 9.66416C24.6592 9.62198 24.6138 9.56277 24.5885 9.4943C24.0197 7.74859 23.1902 6.09893 22.1281 4.60129C22.0791 4.53943 22.0536 4.46219 22.0561 4.38329C22.0586 4.30439 22.0891 4.22895 22.142 4.17038ZM11.7861 9.24409C12.7537 6.82388 14.3698 4.71724 16.4567 3.15563C16.5163 3.11559 16.5864 3.09421 16.6582 3.09421C16.73 3.09421 16.8002 3.11559 16.8598 3.15563C18.9467 4.71724 20.5627 6.82388 21.5304 9.24409C21.5611 9.29431 21.5774 9.35203 21.5774 9.4109C21.5774 9.46976 21.5611 9.52749 21.5304 9.57771C21.4982 9.62536 21.4547 9.66427 21.4037 9.69096C21.3528 9.71765 21.296 9.73127 21.2385 9.73061H12.1058C12.0485 9.73009 11.9921 9.71595 11.9414 9.68936C11.8906 9.66278 11.8469 9.62451 11.8139 9.57771C11.7864 9.52703 11.7698 9.47123 11.765 9.41381C11.7602 9.35639 11.7674 9.2986 11.7861 9.24409ZM4.97478 9.24409C6.37912 7.04648 8.37337 5.28827 10.7296 4.17038C10.7863 4.12964 10.8544 4.10773 10.9242 4.10773C10.9941 4.10773 11.0621 4.12964 11.1188 4.17038C11.1662 4.22955 11.192 4.30309 11.192 4.37888C11.192 4.45468 11.1662 4.52822 11.1188 4.58739C10.0866 6.09552 9.28539 7.74942 8.74184 9.4943C8.71659 9.56277 8.67121 9.62198 8.61166 9.66416C8.55211 9.70634 8.48119 9.72951 8.40823 9.73061H5.2667C5.20543 9.72975 5.14548 9.7127 5.09292 9.68119C5.04037 9.64969 4.99708 9.60485 4.96744 9.55122C4.9378 9.49759 4.92287 9.43708 4.92416 9.37582C4.92545 9.31456 4.94291 9.25472 4.97478 9.20239V9.24409ZM3.89054 21.5461C3.81947 21.5442 3.75072 21.5205 3.69355 21.4782C3.63638 21.4359 3.59354 21.3772 3.57082 21.3098C3.04344 19.8236 2.77543 18.2579 2.77849 16.6809C2.76994 15.354 2.9573 14.0331 3.33451 12.7609C3.35557 12.6888 3.39946 12.6253 3.45962 12.5802C3.51977 12.5351 3.59293 12.5107 3.66813 12.5107H7.56029C7.61109 12.5091 7.66155 12.5196 7.70748 12.5413C7.75341 12.5631 7.79349 12.5955 7.8244 12.6358C7.85835 12.6729 7.88348 12.7172 7.89792 12.7653C7.91237 12.8134 7.91575 12.8642 7.90781 12.9138C7.49908 15.6406 7.54135 18.416 8.03291 21.1291C8.05609 21.1743 8.06817 21.2243 8.06817 21.2751C8.06817 21.3258 8.05609 21.3758 8.03291 21.421C8.00062 21.4598 7.96026 21.4911 7.91465 21.5127C7.86904 21.5343 7.81927 21.5457 7.7688 21.5461H3.89054ZM11.2022 29.1914C11.1552 29.254 11.0876 29.298 11.0114 29.3158C10.9352 29.3336 10.8551 29.324 10.7852 29.2887C8.65781 28.2955 6.81665 26.7795 5.4335 24.8823C5.40036 24.8278 5.38282 24.7653 5.38282 24.7015C5.38282 24.6378 5.40036 24.5753 5.4335 24.5208C5.46267 24.4613 5.50827 24.4113 5.56492 24.3768C5.62157 24.3423 5.68691 24.3248 5.75322 24.3262H8.65844C8.72831 24.3252 8.79676 24.346 8.85412 24.3859C8.91148 24.4258 8.95487 24.4828 8.97815 24.5486C9.54517 26.0276 10.2971 27.4288 11.2161 28.7188C11.2482 28.7497 11.2734 28.787 11.2902 28.8282C11.3069 28.8694 11.3149 28.9137 11.3136 28.9582C11.3123 29.0027 11.3017 29.0464 11.2826 29.0866C11.2634 29.1267 11.236 29.1625 11.2022 29.1914Z" fill="currentColor"/>
<path d="M26.1181 17.0554C25.9463 16.7327 25.69 16.4627 25.3766 16.2745C25.0632 16.0863 24.7044 15.9868 24.3388 15.9868C23.9732 15.9868 23.6145 16.0863 23.3011 16.2745C22.9876 16.4627 22.7313 16.7327 22.5596 17.0554L15.5398 30.4417C15.3691 30.7401 15.2793 31.0779 15.2793 31.4217C15.2793 31.7655 15.3691 32.1033 15.5398 32.4017C15.7237 32.6931 15.978 32.9337 16.2791 33.1013C16.5803 33.2689 16.9188 33.3581 17.2634 33.3608H31.3725C31.7153 33.3584 32.0519 33.2691 32.3509 33.1014C32.6499 32.9337 32.9015 32.6929 33.0823 32.4017C33.2598 32.1079 33.3594 31.7737 33.3715 31.4307C33.3837 31.0877 33.3081 30.7473 33.1518 30.4417L26.1181 17.0554ZM24.3388 21.2256C24.4763 21.2237 24.6127 21.2494 24.74 21.3012C24.8673 21.3529 24.983 21.4296 25.0802 21.5268C25.1774 21.624 25.2541 21.7396 25.3058 21.867C25.3576 21.9943 25.3832 22.1307 25.3814 22.2681V26.4383C25.3814 26.7148 25.2715 26.98 25.076 27.1755C24.8805 27.371 24.6153 27.4809 24.3388 27.4809C24.0623 27.4809 23.7972 27.371 23.6016 27.1755C23.4061 26.98 23.2963 26.7148 23.2963 26.4383V22.2403C23.2963 21.9638 23.4061 21.6987 23.6016 21.5032C23.7972 21.3076 24.0623 21.1978 24.3388 21.1978V21.2256ZM24.3388 30.956C24.0639 30.956 23.7951 30.8745 23.5666 30.7217C23.338 30.569 23.1598 30.3519 23.0546 30.0979C22.9494 29.8439 22.9218 29.5644 22.9755 29.2948C23.0291 29.0251 23.1615 28.7774 23.3559 28.583C23.5503 28.3886 23.798 28.2562 24.0676 28.2026C24.3373 28.149 24.6168 28.1765 24.8708 28.2817C25.1248 28.3869 25.3419 28.5651 25.4946 28.7937C25.6474 29.0223 25.7289 29.291 25.7289 29.566C25.7216 29.9298 25.572 30.2763 25.312 30.531C25.0521 30.7857 24.7027 30.9283 24.3388 30.9282V30.956Z" fill="currentColor"/>
</g>
<defs>
<clipPath id="clip0_20_4924">
<rect width="33.3614" height="33.3614" fill="currentColor"/>
</clipPath>
</defs>
</svg>
